<svg width="98" height="106" viewBox="0 0 98 106" fill="none" xmlns="http://www.w3.org/2000/svg">
<path d="M26.5278 13.6411L44.1705 4.13079L42.4036 1.49274C41.4285 0.0368708 39.3201 -0.435631 37.6964 0.439821L25.9344 6.77992C24.3113 7.65475 23.7851 9.5462 24.7607 11.0029L26.5278 13.6411Z" fill="#5DA2D8"/>
<path d="M97.501 71.824C96.5177 70.3714 94.4068 69.9077 92.7876 70.79L73.6436 81.2227C74.5538 83.1821 75.1461 85.285 75.3679 87.4844L96.3484 76.0504C97.9696 75.1682 98.4842 73.2766 97.501 71.824Z" fill="#5DA2D8"/>
<path d="M78.9003 98.8907H68.609V89.453C68.609 80.9683 60.9146 74.0654 51.4569 74.0654C41.9992 74.0654 34.3047 80.9683 34.3047 89.453V98.8907H24.0134C22.1189 98.8907 20.583 100.269 20.583 101.968C20.583 103.668 22.1189 105.046 24.0134 105.046H78.9003C80.7948 105.046 82.3307 103.668 82.3307 101.968C82.3307 100.269 80.7948 98.8907 78.9003 98.8907ZM51.4569 92.5305C49.5624 92.5305 48.0264 91.1526 48.0264 89.453C48.0264 87.7534 49.5624 86.3755 51.4569 86.3755C53.3514 86.3755 54.8873 87.7534 54.8873 89.453C54.8873 91.1526 53.3514 92.5305 51.4569 92.5305Z" fill="#5DA2D8"/>
<path d="M25.9466 24.7248L29.5654 30.1279L36.8823 26.1587C45.5556 21.454 56.7374 24.0758 61.884 31.6227C67.1808 39.391 64.4044 49.525 55.695 54.2041L48.3381 58.1569L50.682 61.6562C51.6618 63.1188 53.7793 63.5838 55.3993 62.7036C55.5075 62.6453 56.6558 62.0263 58.3895 61.0916L63.6525 68.9495C64.6297 70.4089 66.7406 70.8756 68.3597 70.0024L80.1215 63.6623C81.7455 62.7869 82.2708 60.8965 81.2952 59.4394L76.0322 51.5814C77.7882 50.635 78.9129 50.0287 78.9129 50.0287C80.5368 49.1533 81.0622 47.2627 80.0865 45.8058C80.0047 45.6833 55.3287 8.83455 55.2386 8.71699C54.2117 7.37602 52.1987 6.98374 50.6443 7.82185L27.1202 20.5018C25.4963 21.3773 24.9707 23.2679 25.9466 24.7248Z" fill="#5DA2D8"/>
<path d="M27.4435 89.4539C27.4435 83.4314 30.2136 77.9795 34.6693 74.0664H30.8739C25.1993 74.0664 20.5826 69.9246 20.5826 64.8338C20.5826 59.743 25.1993 55.6013 30.8725 55.6013C30.8741 55.6013 38.789 55.6043 38.7886 55.6043C39.4095 55.6041 40.0185 55.4531 40.5511 55.1669L52.1705 48.9241C57.6038 46.0049 59.3369 39.6821 56.032 34.8354C52.7733 30.0568 45.7754 28.5281 40.4329 31.4261L29.8891 37.146C13.319 37.6128 0 49.8537 0 64.8338C0 79.0661 12.028 90.8236 27.4435 92.3595V89.4539Z" fill="#5DA2D8"/>
</svg>
