<svg width="39" height="37" viewBox="0 0 39 37" fill="none" xmlns="http://www.w3.org/2000/svg">
<path d="M10.2832 0C8.39307 0 6.85547 1.4438 6.85547 3.21861C6.85547 4.99343 8.39307 6.43723 10.2832 6.43723C12.1733 6.43723 13.7109 4.99343 13.7109 3.21861C13.7109 1.4438 12.1733 0 10.2832 0Z" fill="white"/>
<path d="M35.5718 0H19.4233C17.5332 0 15.9956 1.44379 15.9956 3.2186V7.03101C16.334 7.21604 16.6574 7.42747 16.9418 7.69447L19.1823 9.79829L20.8069 9.03555C21.8961 8.52594 22.8432 8.5042 23.8329 8.70776L29.316 6.13337C31.0062 5.34718 33.0564 5.96558 33.9131 7.5698C34.7669 9.17095 34.0741 11.0973 32.3822 11.8917L27.1275 14.3587C26.724 15.3859 25.9423 16.2227 24.893 16.7144L23.9312 17.1659H35.5718C37.4619 17.1659 38.9995 15.7221 38.9995 13.9473V3.2186C38.9995 1.44379 37.4619 0 35.5718 0Z" fill="white"/>
<path d="M31.8717 8.53234C31.5882 8.0022 30.9043 7.78948 30.3386 8.05248L23.9666 11.044C23.3322 10.7025 22.5518 10.6172 21.8295 10.9551L18.732 12.4093L15.3266 9.21168C14.8948 8.80613 14.3213 8.58298 13.7109 8.58298H4.57031C2.04971 8.58298 0 10.5076 0 12.8744V19.3832C0 20.8622 1.56937 21.9006 3.04726 21.4063L4.57031 20.9014C4.57031 25.6381 4.57031 29.7183 4.57031 34.4749C4.57031 35.6598 5.59338 36.6206 6.85547 36.6206C8.11756 36.6206 9.14062 35.6598 9.14062 34.4749C9.14062 31.6494 9.14062 29.5704 9.14062 26.8933C9.14062 26.3006 9.65219 25.8204 10.2832 25.8204C10.9142 25.8204 11.4258 26.3006 11.4258 26.8933C11.4258 29.6572 11.4258 31.6393 11.4258 34.4749C11.4258 35.6598 12.4488 36.6206 13.7109 36.6206C14.973 36.6206 15.9961 35.6598 15.9961 34.4749C15.9961 27.8683 15.9961 23.0795 15.9961 16.5278L17.5191 17.0318C18.156 17.2435 18.7571 17.1951 19.3033 16.9396L23.8736 14.7939C24.6639 14.4237 25.096 13.6797 25.1099 12.9066L31.3606 9.97191C31.9252 9.70684 32.154 9.06248 31.8717 8.53234Z" fill="white"/>
</svg>
