<svg id="Capa_1" enable-background="new 0 0 512 512" height="512" viewBox="0 0 512 512" width="512" xmlns="http://www.w3.org/2000/svg"><g><path d="m490.545 346.39c11.499 0 20.853-9.355 20.853-20.854s-9.355-20.854-20.853-20.854h-21.526v-123.902h21.526c11.499 0 20.853-9.355 20.853-20.854s-9.355-20.854-20.853-20.854h-7.877v-126.597c0-6.879-5.596-12.475-12.475-12.475h-24.412c-1.774 0-3.46.378-4.99 1.049-1.53-.671-3.216-1.049-4.99-1.049h-50.053c-1.774 0-3.46.378-4.99 1.049-1.53-.671-3.216-1.049-4.99-1.049h-50.052c-1.774 0-3.46.378-4.99 1.049-1.53-.671-3.216-1.049-4.99-1.049h-20.543c-1.774 0-3.46.378-4.99 1.049-1.531-.671-3.217-1.049-4.991-1.049h-20.542c-1.774 0-3.46.378-4.99 1.049-1.53-.671-3.216-1.049-4.991-1.049h-38.767c-1.774 0-3.46.378-4.99 1.049-1.53-.671-3.216-1.049-4.99-1.049h-20.543c-6.879 0-12.475 5.596-12.475 12.475v126.596h-147.958c-11.499 0-20.853 9.355-20.853 20.854 0 4.828 1.664 9.266 4.429 12.805-4.884 4.631-7.939 11.172-7.939 18.418v80.276c0 14.001 11.391 25.392 25.392 25.392h80.276c14.002 0 25.392-11.391 25.392-25.392v-7.608c0-4.134-3.351-7.485-7.485-7.485s-7.485 3.351-7.485 7.485v7.608c0 5.746-4.675 10.422-10.422 10.422h-80.277c-5.746 0-10.422-4.675-10.422-10.422v-80.276c0-5.393 4.118-9.841 9.374-10.369.007 0 .013.001.02.001h82.37c5.248.535 9.357 4.981 9.357 10.368v37.287c0 4.134 3.351 7.485 7.485 7.485s7.485-3.351 7.485-7.485v-37.287c0-3.692-.799-7.2-2.222-10.368h43.482v123.902h-147.957c-11.499 0-20.853 9.355-20.853 20.854 0 4.657 1.553 8.948 4.143 12.423-4.718 4.613-7.654 11.041-7.654 18.145v80.276c0 14.001 11.391 25.392 25.392 25.392h80.276c14.002 0 25.392-11.391 25.392-25.392v-80.276c0-3.44-.691-6.72-1.935-9.714h43.196v123.902h-147.957c-11.499 0-20.853 9.355-20.853 20.854s9.355 20.854 20.853 20.854h355.792c4.134 0 7.485-3.351 7.485-7.485s-3.351-7.485-7.485-7.485h-355.792c-3.244 0-5.883-2.639-5.883-5.884 0-3.244 2.639-5.883 5.883-5.883h465.579c3.244 0 5.883 2.639 5.883 5.883 0 3.245-2.639 5.884-5.883 5.884h-75.226c-4.134 0-7.485 3.351-7.485 7.485s3.351 7.485 7.485 7.485h75.226c11.499 0 20.853-9.355 20.853-20.854s-9.355-20.854-20.853-20.854h-7.958v-123.902zm-66.25-41.708v-123.902h29.754v123.902zm-116.825 0v-123.902h29.754v123.902zm-44.725 0v-123.902h29.754v123.902zm146.579-50.64-25.189-73.262h25.189zm-.518 44.535-15.928 5.476-40.285-117.17 15.928-5.476zm-56.612-66.812 25.07 72.917h-25.07zm115.504-92.694h-19.422v-124.101h19.422zm-34.393 0h-45.062v-76.236c0-4.134-3.351-7.485-7.485-7.485s-7.485 3.351-7.485 7.485v76.236h-45.061v-124.101h45.061v11.468c0 4.134 3.351 7.485 7.485 7.485s7.485-3.351 7.485-7.485v-11.468h45.062zm-120.064 0h-15.553v-124.101h15.553zm-30.524 0h-15.552v-124.101h15.552zm-30.523 0h-33.777v-124.101h33.777zm-64.301-124.101h15.553v124.101h-15.553zm-168.81 144.955c0-3.244 2.639-5.883 5.883-5.883h465.579c3.244 0 5.883 2.639 5.883 5.883 0 3.245-2.639 5.884-5.883 5.884l-464.551-.054c-.456 0-.909.013-1.36.037-3.089-.173-5.551-2.734-5.551-5.867zm168.81 20.855h59.882v123.902h-59.882zm-168.81 144.755c0-3.244 2.639-5.883 5.883-5.883h465.579c3.244 0 5.883 2.639 5.883 5.883 0 3.245-2.639 5.884-5.883 5.884 0 0-462.84.057-465.643 0-4.21.11-5.819-3.464-5.819-5.884zm380.445 144.757v-123.902h33.777v123.902zm-117.695-123.902v123.902h-19.087v-123.902zm-165.141 9.714v80.276c0 5.746-4.675 10.421-10.422 10.421h-80.276c-5.746 0-10.422-4.675-10.422-10.421v-80.276c0-4.568 2.959-8.45 7.057-9.854.768.086 87.386.14 87.386.14 3.9 1.509 6.677 5.289 6.677 9.714zm71.201-9.714h29.66v123.902h-29.66zm44.631 123.902v-123.902h15.251v123.902zm64.279-123.902h39.007v123.902h-39.007zm53.978 0h33.777v123.902h-33.777zm116.836 123.902h-19.341v-123.902h19.341z"/><path d="m25.994 131.859h80.276c14.002 0 25.392-11.391 25.392-25.392v-80.276c0-14.001-11.391-25.392-25.392-25.392h-80.276c-14.002 0-25.392 11.391-25.392 25.392v80.276c0 14.001 11.39 25.392 25.392 25.392zm-10.422-105.668c0-5.746 4.675-10.422 10.422-10.422h80.276c5.746 0 10.422 4.675 10.422 10.422v80.276c0 5.746-4.675 10.422-10.422 10.422h-80.276c-5.746 0-10.422-4.675-10.422-10.422z"/><path d="m42.218 96.589c3.858 1.472 8.187-.467 9.659-4.331l2.99-7.851h20.804l2.955 7.83c1.131 2.998 3.979 4.845 7.004 4.844.878 0 1.772-.155 2.642-.484 3.867-1.46 5.82-5.779 4.36-9.646l-19.204-50.885c-.025-.068-.052-.136-.08-.203-1.339-3.259-4.48-5.364-8.004-5.364-.002 0-.004 0-.006 0-3.526.002-6.668 2.112-8.005 5.375-.023.058-.046.115-.068.173l-19.379 50.883c-1.471 3.863.468 8.187 4.332 9.659zm27.803-27.153h-9.453l4.748-12.467z"/><path d="m66.54 197.734h-14.991c-4.134 0-7.485 3.351-7.485 7.485v23.765.039 27.807c0 1.991.793 3.9 2.205 5.304 1.403 1.397 3.301 2.181 5.281 2.181h.033s13.778-.061 17.577-.061c11.787 0 21.377-9.59 21.377-21.377 0-6.39-2.833-12.119-7.292-16.039 1.678-2.866 2.657-6.188 2.657-9.742-.001-10.677-8.686-19.362-19.362-19.362zm0 14.97c2.421 0 4.391 1.969 4.391 4.39s-1.97 4.39-4.391 4.39c-1.11 0-3.209.006-5.492.014h-2.014v-8.795h7.506zm2.619 36.579c-1.886 0-6.223.015-10.125.03v-12.836c.685-.003 1.374-.005 2.047-.008h8.078c3.532 0 6.406 2.874 6.406 6.407s-2.874 6.407-6.406 6.407z"/><path d="m69.327 426.625c7.366 0 13.986-2.427 19.137-7.015 1.009-.897 1.97-1.888 2.856-2.944 2.656-3.168 2.242-7.889-.926-10.545s-7.89-2.242-10.546.925c-.419.5-.867.963-1.337 1.381-2.404 2.142-5.495 3.228-9.184 3.228-10.101 0-18.319-8.218-18.319-18.32s8.218-18.32 18.319-18.32c3.672 0 7.212 1.08 10.239 3.124 3.425 2.314 8.078 1.413 10.393-2.013 2.314-3.426 1.413-8.079-2.013-10.393-5.511-3.722-11.948-5.689-18.619-5.689-18.356 0-33.29 14.934-33.29 33.29.001 18.357 14.934 33.291 33.29 33.291z"/></g></svg>