<svg width="133" height="142" viewBox="0 0 133 142" fill="none" xmlns="http://www.w3.org/2000/svg">
<path d="M66.3335 35.4421C75.4922 35.4421 82.9169 27.5081 82.9169 17.7211C82.9169 7.93399 75.4922 0 66.3335 0C57.1747 0 49.75 7.93399 49.75 17.7211C49.75 27.5081 57.1747 35.4421 66.3335 35.4421Z" fill="#5DA2D8"/>
<path d="M91.1758 83.6081L87.4114 52.2772C86.9885 47.7318 83.4396 44.3027 79.1694 44.3027H74.6255C73.5227 44.3027 72.4697 44.7723 71.6903 45.5964L66.3338 51.3203L60.9773 45.5964C60.1979 44.7723 59.1449 44.3027 58.0421 44.3027H53.5065C49.228 44.3027 45.6791 47.7318 45.2645 52.162L41.4918 83.6169C41.3425 84.8751 41.7074 86.151 42.4951 87.0991C43.2828 88.056 44.4105 88.6054 45.6045 88.6054H50.082L53.5479 133.794C53.9625 138.331 57.5197 141.769 61.7982 141.769H70.8777C75.1562 141.769 78.7051 138.331 79.1362 133.714L82.5939 88.6054H87.0631C88.2571 88.6054 89.3848 88.056 90.1725 87.0991C90.9685 86.151 91.3334 84.8751 91.1758 83.6081Z" fill="#5DA2D8"/>
<path d="M107.792 35.4421C116.951 35.4421 124.376 27.5081 124.376 17.7211C124.376 7.93399 116.951 0 107.792 0C98.6337 0 91.209 7.93399 91.209 17.7211C91.209 27.5081 98.6337 35.4421 107.792 35.4421Z" fill="#5DA2D8"/>
<path d="M24.8755 0C15.7297 0 8.29199 7.9479 8.29199 17.7211C8.29199 27.4942 15.7297 35.4421 24.8755 35.4421C34.013 35.4421 41.4589 27.4942 41.4589 17.7211C41.4589 7.9479 34.013 0 24.8755 0Z" fill="#5DA2D8"/>
<path d="M132.635 83.6081L128.871 52.2861C128.448 47.7318 124.907 44.3027 120.629 44.3027H116.085C114.982 44.3027 113.929 44.7723 113.15 45.5964L107.793 51.3203L102.437 45.5964C101.657 44.7723 100.604 44.3027 99.5097 44.3027H94.9658C94.4517 44.3027 93.9874 44.4977 93.4982 44.5951C94.5678 46.6153 95.4053 48.8039 95.654 51.2583L99.4102 82.4828C99.8745 86.2839 98.7634 90.1117 96.3754 92.9914C95.2477 94.3736 93.805 95.3483 92.2627 96.1103L95.0156 124.934C95.4384 129.479 98.9873 132.908 103.266 132.908H112.345C116.624 132.908 120.173 129.47 120.604 124.854L124.053 88.6054H128.522C129.716 88.6054 130.844 88.056 131.632 87.0991C132.428 86.151 132.793 84.8751 132.635 83.6081Z" fill="#5DA2D8"/>
<path d="M36.2679 92.9471C33.9131 90.1028 32.8186 86.2839 33.2663 82.5005L37.0391 51.0367C37.2546 48.6798 38.0672 46.5533 39.1037 44.5863C38.6394 44.4977 38.1999 44.3027 37.7107 44.3027H33.1668C32.064 44.3027 31.011 44.7723 30.2315 45.5964L24.8751 51.3203L19.5186 45.5964C18.7392 44.7723 17.6861 44.3027 16.5916 44.3027H12.0475C7.76897 44.3027 4.22011 47.7318 3.80552 52.162L0.0327828 83.6169C-0.116468 84.8751 0.248368 86.151 1.03608 87.0991C1.8238 88.056 2.95977 88.6054 4.14548 88.6054H8.62302L12.089 124.934C12.5036 129.47 16.0607 132.908 20.3392 132.908H29.4187C33.6972 132.908 37.2461 129.47 37.6773 124.854L40.4301 96.1014C38.8798 95.3305 37.4288 94.347 36.2679 92.9471Z" fill="#5DA2D8"/>
</svg>
