<svg width="101" height="139" viewBox="0 0 101 139" fill="none" xmlns="http://www.w3.org/2000/svg">
<path d="M97.5738 120.605V138.844H2.97447V120.598C2.97447 113.831 8.62322 105.487 15.5292 102.109L30.8945 94.5592L41.5582 117.522L47.0141 102.227C48.0887 102.444 49.1599 102.721 50.2759 102.721C51.3953 102.721 52.463 102.444 53.5411 102.227L58.718 116.775L69.1647 94.3065L85.0191 102.098C91.9251 105.487 97.5738 113.831 97.5738 120.605ZM50.2793 94.3029C63.7778 94.3029 74.7205 76.9426 74.7205 61.0312C74.7205 45.1054 63.7812 36.6585 50.2793 36.6585C36.7809 36.6585 25.845 45.1054 25.845 61.0312C25.8381 76.9426 36.7809 94.3029 50.2793 94.3029ZM86.793 54.0472L81.5231 52.1713C82.0777 50.5089 82.5633 49.2915 82.9766 48.5084C83.3899 47.7217 84.0306 47.0988 84.8882 46.6396C85.7493 46.1662 86.9755 45.8779 88.584 45.7568C89.3315 45.7355 89.9721 45.7141 90.5198 45.6963C91.0536 45.6714 91.5359 45.6216 91.9526 45.5397C92.3694 45.4578 92.7379 45.3048 93.0342 45.0912C93.8264 44.5679 94.4601 43.6033 94.9217 42.2079C95.5175 40.4281 95.6312 39.1573 95.2695 38.3955C95.0801 37.8616 94.6978 37.4202 94.1088 37.0785C93.5164 36.7368 92.6174 36.3523 91.4084 35.9252C90.041 35.4838 89.0146 35.2239 88.3292 35.1278C87.661 35.0317 87.0961 35.1243 86.6449 35.4197C86.1627 35.7899 85.6804 36.5552 85.1776 37.7299C85.1845 37.8901 85.1397 38.1143 85.0432 38.3991L84.6127 39.6806L79.3463 37.8118C80.1833 35.2987 81.0271 33.4584 81.8813 32.2908C82.7424 31.1268 83.7034 30.4184 84.7746 30.155C86.0042 29.8489 87.2752 29.8311 88.5737 30.1016C89.8688 30.3722 91.4256 30.8314 93.2408 31.4756C97.2983 32.9209 99.7334 34.6651 100.55 36.7261C101.28 38.5379 101.122 41.0012 100.078 44.1372C99.3511 46.3086 98.5658 47.8072 97.7082 48.6259C96.8505 49.4375 95.7896 49.9714 94.5256 50.2206C94.1226 50.306 93.4509 50.3808 92.4968 50.4271C91.5565 50.4733 90.847 50.5125 90.3786 50.5659C89.9067 50.6122 89.4348 50.751 88.9423 50.9574C88.3326 51.1461 87.9296 51.438 87.723 51.826C87.4922 52.1357 87.1787 52.8725 86.793 54.0472ZM80.073 56.5069L85.3429 58.3792L83.3865 64.2562L78.1201 62.3838L80.073 56.5069ZM15.6704 52.9046L11.2099 54.9264C10.6106 53.5168 10.2214 52.4382 10.0354 51.68C9.8563 50.9218 9.90452 50.1245 10.187 49.3022C10.4694 48.4799 11.0963 47.5366 12.0538 46.4723C12.5222 45.9953 12.9252 45.5895 13.2628 45.2478C13.5934 44.9025 13.8759 44.5786 14.0963 44.2689C14.3133 43.9557 14.458 43.6353 14.5337 43.3149C14.7438 42.4891 14.5957 41.4782 14.0963 40.3071C13.4522 38.7942 12.7978 37.9043 12.1227 37.6409C11.699 37.4095 11.1962 37.3668 10.6209 37.5092C10.0457 37.648 9.25009 37.9542 8.22367 38.4205C7.09048 38.9829 6.28105 39.4456 5.79195 39.798C5.30286 40.154 4.99631 40.5562 4.87231 41.0225C4.77931 41.5494 4.90675 42.3503 5.26152 43.4075C5.36141 43.5036 5.4613 43.678 5.56463 43.9236L6.02617 45.0164L1.56573 47.0419C0.663303 44.9132 0.150093 43.2153 0.0329845 41.9338C-0.0875682 40.6595 0.122538 39.6129 0.659859 38.7835C1.27984 37.8331 2.08238 37.05 3.07436 36.4271C4.06289 35.8077 5.32697 35.1527 6.8666 34.4444C10.3006 32.8853 12.8701 32.5151 14.5785 33.3338C16.0837 34.0457 17.3995 35.733 18.5258 38.3849C19.3111 40.2323 19.6624 41.674 19.5763 42.724C19.4902 43.7706 19.1182 44.7601 18.45 45.6999C18.2364 46.0096 17.8438 46.4723 17.2617 47.0775C16.6796 47.6826 16.2559 48.1489 15.9769 48.4693C15.7014 48.7896 15.4741 49.1705 15.2812 49.6083C14.9987 50.096 14.9057 50.5267 14.9953 50.904C15.0263 51.2493 15.2467 51.9114 15.6704 52.9046ZM12.7633 58.6035L17.2272 56.5745L19.3455 61.5544L14.8816 63.5727L12.7633 58.6035ZM45.6294 24.0823L40.611 21.5443C41.3584 19.9603 41.9853 18.8034 42.4916 18.0737C42.9945 17.3511 43.7109 16.81 44.6168 16.4541C45.5261 16.091 46.7867 15.9593 48.3987 16.0483C49.1496 16.123 49.7937 16.1835 50.331 16.2405C50.8683 16.2868 51.354 16.2974 51.7811 16.2618C52.2082 16.2334 52.5836 16.123 52.9142 15.9628C53.7719 15.5321 54.5159 14.66 55.1393 13.3358C55.9384 11.6379 56.2139 10.3849 55.9315 9.57332C55.8144 9.02157 55.4769 8.53035 54.9326 8.11387C54.3884 7.70452 53.5377 7.20261 52.3838 6.61883C51.075 6.00658 50.083 5.6257 49.4217 5.43348C48.7638 5.25906 48.192 5.2733 47.7064 5.50823C47.1863 5.81792 46.6111 6.52272 45.9739 7.63688C45.967 7.79707 45.8946 8.00708 45.7638 8.28829L45.1817 9.5128L40.1598 6.97835C41.293 4.58273 42.3573 2.85988 43.3424 1.81335C44.3412 0.756142 45.3814 0.172365 46.4767 0.0548971C47.7408 -0.0910472 49.0049 0.0548972 50.2621 0.482051C51.5193 0.919884 53.0141 1.57841 54.7501 2.44696C58.6147 4.40831 60.8328 6.45865 61.408 8.6051C61.9109 10.4881 61.47 12.93 60.051 15.9272C59.0693 17.9918 58.1083 19.3836 57.1543 20.0849C56.2071 20.7826 55.0876 21.1848 53.796 21.2738C53.3758 21.3094 52.6973 21.2951 51.7466 21.2133C50.7994 21.135 50.0933 21.0922 49.6214 21.078C49.1461 21.0602 48.6536 21.1492 48.1404 21.3023C47.5204 21.3948 47.0795 21.6404 46.8246 22.0035C46.5594 22.2634 46.1668 22.9646 45.6294 24.0823ZM38.6546 25.6735L43.6799 28.2079L41.0278 33.8108L36.0024 31.2692L38.6546 25.6735Z" fill="#5DA2D8"/>
</svg>
