<svg width="39" height="39" viewBox="0 0 39 39" fill="none" xmlns="http://www.w3.org/2000/svg">
<path d="M31.4208 27.4223C31.1327 26.7331 30.4391 26.2917 29.7773 26.0204L25.3036 23.9604L23.1542 22.1478L19.7006 25.5827H19.698L21.1885 35.5462C21.1939 35.5803 21.185 35.6153 21.1647 35.6432L19.6063 37.7759C19.5815 37.8102 19.542 37.8301 19.4999 37.8301C19.4577 37.8301 19.4182 37.81 19.3934 37.7759L17.8352 35.6432C17.8147 35.6153 17.8061 35.5801 17.8112 35.5462L19.3016 25.5825H19.2993L15.8459 22.1478L13.6965 23.9604L9.22254 26.0204C8.56059 26.2917 7.91015 26.7039 7.57922 27.4223C7.57922 27.4223 2.7162 38.9999 5.35389 38.9999H33.6466C36.2839 39.0002 31.4208 27.4223 31.4208 27.4223Z" fill="white"/>
<path d="M31.731 11.5482C31.7984 11.5409 31.859 11.5087 31.9007 11.4567C31.943 11.4047 31.962 11.3377 31.9546 11.271C31.9045 10.8434 31.8542 10.4166 31.8046 9.989L31.7003 9.09414C31.6844 8.96055 31.5649 8.86342 31.4303 8.87545L31.2368 8.87571L31.2405 5.87188L31.3418 5.83508L31.6795 5.71318C31.9655 5.60972 32.1559 5.3386 32.1559 5.03481C32.1559 4.73093 31.9655 4.45972 31.6795 4.35618L19.7446 0.0430357C19.5859 -0.0143147 19.4124 -0.0143147 19.254 0.0430357L7.31897 4.35618C7.03318 4.45972 6.84277 4.73093 6.84277 5.03481C6.84277 5.3386 7.03318 5.60972 7.31897 5.71318L11.731 7.30766C11.4196 8.29088 11.2778 9.41663 11.2906 10.67C11.3682 17.8192 15.5183 22.0825 19.3584 22.0825C23.1537 22.0825 27.3488 17.8192 27.4261 10.67C27.4389 9.45519 27.305 8.36096 27.0135 7.39953L30.2217 6.24022L30.2284 8.87685L30.0346 8.87677C29.9 8.865 29.7803 8.96178 29.765 9.09642L29.514 11.2735C29.5065 11.3398 29.5261 11.4061 29.5681 11.4582C29.6101 11.5101 29.6713 11.5434 29.7377 11.549L31.731 11.5482ZM19.359 20.3463C16.0086 20.3463 13.6967 16.4216 13.2304 12.4981C12.7991 8.86965 18.0466 8.70076 18.3513 10.9497C18.4452 11.6411 17.6514 12.3817 17.7414 12.6673C18.1854 14.0768 25.5379 8.06666 25.4877 12.4963C25.4523 15.6239 22.5512 20.3463 19.359 20.3463Z" fill="white"/>
</svg>
