<svg width="115" height="102" viewBox="0 0 115 102" fill="none" xmlns="http://www.w3.org/2000/svg">
<path d="M105.714 31.325H105.642C105.63 27.2154 103.056 26.5602 99.1629 25.5699L99.0846 25.5496C97.8432 25.2309 96.5939 24.963 95.3012 24.735C95.3186 24.4515 95.3281 24.161 95.3281 23.8626C95.3221 19.8999 93.8204 16.483 90.9867 13.9815C88.0294 11.3706 83.735 9.91175 79.1742 9.96174C74.6281 9.9016 70.325 11.3699 67.3686 13.9799C64.5341 16.4822 63.0324 19.8999 63.0263 23.8626C63.0263 24.3554 63.0515 24.8264 63.0985 25.2793C60.6427 25.7792 58.6161 26.379 57.0491 27.0702C53.0793 25.32 46.2394 24.1649 37.1508 23.7213C36.2263 23.6783 35.428 24.314 35.3775 25.1474C35.327 25.9807 36.0391 26.6929 36.968 26.7382C47.7707 27.2662 52.9688 28.6868 55.3654 29.6966V85.6431C50.8586 84.092 43.8306 83.0072 36.4083 82.7768C30.8097 82.6019 20.5877 82.7979 11.8317 85.7446V31.3523C11.8317 29.9911 12.1547 29.7622 12.3479 29.6248C12.9068 29.228 14.143 28.9133 15.8536 28.4775L15.9381 28.4556C19.6466 27.5114 23.3918 27.0171 28.8649 26.75C29.7938 26.7047 30.505 25.9924 30.4545 25.1591C30.4041 24.3258 29.6049 23.6838 28.6812 23.7322C22.9417 24.0126 18.9833 24.539 15.0179 25.5488L14.9335 25.5707C11.0456 26.561 8.47483 27.217 8.46351 31.325H8.38517C3.76166 31.325 0 34.7012 0 38.8507V91.4435C0 96.245 3.85133 101.109 11.2127 101.115L57.0473 101.167H57.0491H57.0508L75.5004 101.15C76.4302 101.149 77.1832 100.472 77.1823 99.6369C77.1815 98.8028 76.4276 98.128 75.4987 98.128C75.4978 98.128 75.497 98.128 75.497 98.128L58.7336 98.1428V93.5373H100.484C103.328 93.5373 105.642 91.4263 105.642 88.8318V34.3467H105.713C108.483 34.3467 110.737 36.3671 110.737 38.8507V91.4435C110.737 94.6424 108.28 98.089 102.888 98.0936L83.3023 98.1163C82.3717 98.1171 81.6187 98.795 81.6204 99.6291C81.6213 100.463 82.3752 101.138 83.3049 101.138H83.3067L102.892 101.115C110.254 101.109 114.105 96.245 114.105 91.4435V38.8507C114.105 34.7012 110.341 31.325 105.714 31.325ZM69.7304 16.1347C72.0548 14.083 75.4935 12.9287 79.1489 12.9834H79.1994C82.8566 12.9272 86.2996 14.0838 88.624 16.1355C90.8013 18.0575 91.9548 20.7308 91.96 23.8665C91.9652 27.7941 90.0474 29.8669 87.8275 32.2669C85.8914 34.3592 83.7272 36.699 83.251 40.3588H80.8578V29.8895H83.5008C84.4306 29.8895 85.1845 29.2132 85.1845 28.3791C85.1845 27.5442 84.4306 26.8679 83.5008 26.8679H74.6769C73.7463 26.8679 72.9924 27.5442 72.9924 28.3791C72.9924 29.2132 73.7463 29.8895 74.6769 29.8895H77.4896V40.3588H75.1035C74.6273 36.699 72.4631 34.3592 70.527 32.2669C68.3062 29.8669 66.3892 27.7941 66.3945 23.8665C66.3997 20.7301 67.5532 18.0567 69.7304 16.1347ZM73.9195 43.3804H84.4349C85.7878 43.3804 86.8881 44.3668 86.8881 45.5789C86.8881 46.7879 85.7878 47.7719 84.4349 47.7719H73.9195C72.5667 47.7719 71.4663 46.7879 71.4663 45.5789C71.4663 44.3668 72.5667 43.3804 73.9195 43.3804ZM67.9353 34.1967C69.7853 36.1961 71.4088 37.9556 71.7588 40.7329C69.6164 41.5037 68.0981 43.3851 68.0981 45.5789C68.0981 48.4545 70.7098 50.7936 73.9195 50.7936H84.4349C87.6446 50.7936 90.2563 48.4545 90.2563 45.5789C90.2563 43.3851 88.7381 41.5037 86.5956 40.7329C86.9456 37.9556 88.5692 36.1953 90.4191 34.1959C92.0557 32.4278 93.8465 30.4901 94.7449 27.7176C95.9097 27.9254 97.0397 28.1675 98.1609 28.4556L98.2436 28.4767C99.9577 28.9125 101.196 29.228 101.757 29.6256C101.95 29.7622 102.273 29.9911 102.273 31.3523V85.7446C93.5139 82.7979 83.2928 82.6026 77.6925 82.7768C70.271 83.0072 63.2413 84.0928 58.7336 85.6431V29.6974C59.7878 29.2523 61.3914 28.729 63.7915 28.2362C64.7352 30.7354 66.4023 32.5402 67.9353 34.1967ZM55.3654 88.9217V90.5157H13.6146C12.6883 90.5157 11.9257 89.8448 11.8404 88.9912C25.7788 83.7624 47.883 85.7508 55.3654 88.9217ZM3.36817 91.4435V38.8507C3.36817 36.3671 5.61942 34.3467 8.38517 34.3467H8.46351V88.8326C8.46351 91.4271 10.7748 93.5373 13.6154 93.5373H55.3654V98.1428L11.2162 98.0936C5.82487 98.089 3.36817 94.6424 3.36817 91.4435ZM100.484 90.5157H58.7336V88.9224C66.2186 85.7524 88.3272 83.7648 102.265 88.9912C102.176 89.8323 101.397 90.5157 100.484 90.5157Z" fill="#5DA2D8"/>
<path d="M48.8572 60.7594C46.2125 59.3825 40.9683 58.4148 35.1695 58.2344C31.3034 58.1149 23.9411 58.2742 18.0779 60.6938C17.2326 61.0421 16.8626 61.9394 17.2509 62.6978C17.5347 63.2515 18.145 63.5772 18.7822 63.5772C19.0181 63.5772 19.2567 63.5327 19.4848 63.4389C28.293 59.805 43.1081 61.26 47.1657 63.3726C47.9701 63.792 49.0008 63.5467 49.4683 62.8243C49.9349 62.1034 49.6616 61.1788 48.8572 60.7594Z" fill="#5DA2D8"/>
<path d="M48.8572 71.8494C46.2125 70.4726 40.9683 69.5049 35.1695 69.3245C31.3034 69.2042 23.9411 69.3643 18.0779 71.7838C17.2326 72.1322 16.8626 73.0295 17.2509 73.7878C17.5347 74.3416 18.145 74.6672 18.7822 74.6672C19.0181 74.6672 19.2567 74.6227 19.4848 74.529C28.293 70.8951 43.1081 72.35 47.1657 74.4626C47.9701 74.8812 49.0008 74.6368 49.4683 73.9144C49.9349 73.1935 49.6616 72.2688 48.8572 71.8494Z" fill="#5DA2D8"/>
<path d="M48.857 49.6707C46.2114 48.293 40.9663 47.3246 35.1693 47.1442C31.3015 47.0231 23.9383 47.1824 18.0769 49.6051C17.2316 49.9542 16.8625 50.8515 17.2516 51.6099C17.5354 52.1628 18.1457 52.4885 18.782 52.4885C19.018 52.4885 19.2574 52.4439 19.4863 52.3502C28.2885 48.7124 43.1053 50.1689 47.1655 52.2838C47.9699 52.7025 49.0007 52.4572 49.4682 51.7356C49.9348 51.014 49.6614 50.0893 48.857 49.6707Z" fill="#5DA2D8"/>
<path d="M66.9401 63.3733C70.9943 61.2584 85.805 59.8026 94.6132 63.4397C94.8413 63.5342 95.0807 63.5779 95.3166 63.5779C95.9539 63.5779 96.5633 63.2523 96.8479 62.6985C97.2362 61.941 96.8662 61.0436 96.0218 60.6945C90.1621 58.275 82.799 58.1149 78.9328 58.2359C73.1324 58.4156 67.8881 59.3832 65.2478 60.7609C64.4434 61.1803 64.17 62.105 64.6375 62.8266C65.105 63.5482 66.1357 63.7927 66.9401 63.3733Z" fill="#5DA2D8"/>
<path d="M96.0212 71.7838C90.1615 69.3643 82.7983 69.2042 78.9322 69.3245C73.1317 69.5049 67.8884 70.4726 65.2471 71.8502C64.4427 72.2696 64.1702 73.1943 64.6377 73.9159C65.1052 74.6376 66.1359 74.882 66.9403 74.4626C70.9945 72.3477 85.8043 70.892 94.6135 74.529C94.8416 74.6235 95.081 74.668 95.316 74.668C95.9541 74.668 96.5635 74.3416 96.8473 73.7879C97.2364 73.0303 96.8665 72.1329 96.0212 71.7838Z" fill="#5DA2D8"/>
<path d="M79.1866 6.98599C80.1172 6.98599 80.8711 6.30965 80.8711 5.47555V1.51122C80.8711 0.676341 80.1172 0 79.1866 0C78.2568 0 77.5029 0.676341 77.5029 1.51122V5.47555C77.5029 6.30965 78.2568 6.98599 79.1866 6.98599Z" fill="#5DA2D8"/>
<path d="M63.6648 10.0794C63.9939 10.3738 64.4248 10.5214 64.8557 10.5214C65.2866 10.5214 65.7176 10.3738 66.0466 10.0786C66.7048 9.48817 66.7039 8.53145 66.0458 7.9418L62.9135 5.13257C62.2554 4.54292 61.189 4.54292 60.5317 5.13335C59.8736 5.723 59.8736 6.67972 60.5317 7.27015L63.6648 10.0794Z" fill="#5DA2D8"/>
<path d="M93.5172 10.5214C93.949 10.5214 94.3799 10.3738 94.709 10.0778L97.8352 7.26859C98.4924 6.67816 98.4916 5.72144 97.8334 5.13179C97.1753 4.54292 96.1089 4.54292 95.4516 5.13413L92.3254 7.94258C91.6681 8.53301 91.669 9.48973 92.3272 10.0794C92.6562 10.3738 93.0872 10.5214 93.5172 10.5214Z" fill="#5DA2D8"/>
<path d="M17.2509 40.5133C17.5347 41.0671 18.145 41.3935 18.7822 41.3935C19.0181 41.3935 19.2567 41.349 19.4848 41.2553C28.2843 37.6245 43.1037 39.0787 47.1675 41.1897C47.9719 41.6083 49.0026 41.3615 49.4692 40.6399C49.935 39.9174 49.6607 38.9928 48.8555 38.5749C46.2099 37.2004 40.9657 36.2335 35.1695 36.0531C31.3025 35.9328 23.9394 36.0914 18.0779 38.5093C17.2326 38.8584 16.8626 39.7558 17.2509 40.5133Z" fill="#5DA2D8"/>
</svg>
