<svg width="100" height="75" viewBox="0 0 100 75" fill="none" xmlns="http://www.w3.org/2000/svg">
<path fill-rule="evenodd" clip-rule="evenodd" d="M59.2341 16.2233V24.0108C59.2341 24.773 59.7872 25.4117 60.628 25.4117C61.2475 25.4117 62.0661 25.0409 62.0661 24.0726L62.1325 16.2233H65.2301V24.052C65.2301 24.3816 65.1858 24.67 65.1416 24.9791C64.9203 26.2358 63.9689 27.1422 63.1945 27.5955C61.9998 28.3165 60.7607 28.5226 59.3226 28.1105C58.0835 27.7397 57.4419 26.998 56.7117 26.1122C56.3135 25.4323 56.1365 24.7936 56.1365 24.0726V16.2439H59.2341V16.2233ZM53.592 24.3816C54.5434 26.9156 57.8623 28.4608 60.628 28.4814C63.5264 28.5226 67.0223 26.9362 67.9294 24.1756C68.1064 23.6193 68.0843 22.033 68.1064 21.4562C68.1507 18.6337 68.1064 14.5546 68.1064 13.5863H61.9998C61.2032 13.6275 60.9599 13.9571 60.628 14.5752C60.2961 13.8747 60.0306 13.6687 59.2119 13.5863H53.415V21.4562C53.415 22.8571 53.4372 23.9696 53.592 24.3816Z" fill="#2891E4"/>
<path fill-rule="evenodd" clip-rule="evenodd" d="M39.3813 20.8942C39.3813 20.605 39.3813 20.5017 39.3813 20.2125C39.3813 15.7922 40.4685 12.1567 42.8869 9.01702C45.5272 12.6318 44.0185 15.9781 43.9741 16.1226C43.2641 17.6718 42.5985 19.2417 39.3813 20.8942ZM45.6825 23.724C45.505 24.0339 44.6397 25.2732 43.5969 26.6778C42.5985 27.9998 41.6666 29.1772 41.6888 29.1978C45.6603 35.0021 52.4497 40.1041 60.7477 40.1041C72.5513 40.1248 82.1362 31.2014 82.1362 20.1919C82.1362 9.18227 72.5735 0.279579 60.7477 0.279579C55.5781 0.279579 50.7634 2.03533 47.0581 4.88584C47.0138 4.9065 47.99 5.71208 48.8331 7.17865C49.5431 8.39734 49.9869 9.73998 49.9425 9.78129C52.7603 7.13734 56.399 5.73274 60.7255 5.73274C69.312 5.73274 76.2566 12.198 76.2566 20.1919C76.2566 28.1857 69.312 34.651 60.7255 34.651C53.3593 34.651 47.1913 29.8795 45.5938 23.4555L45.6825 23.724Z" fill="#2891E4"/>
<path fill-rule="evenodd" clip-rule="evenodd" d="M33.5816 39.7768L29.3829 37.0506L37.958 25.382C36.7361 25.5472 35.8253 25.6091 35.2033 25.6091C31.3379 25.6091 28.0945 24.3906 25.4731 21.9536C22.8517 19.5166 21.541 16.5014 21.541 12.9285C21.541 9.47951 22.9628 6.44359 25.8507 3.86202C28.7165 1.28046 32.071 0 35.892 0C39.6685 0 43.0008 1.32176 45.8221 3.94464C48.6656 6.56751 50.0874 9.62408 50.0874 13.0937C50.0874 15.9025 49.11 18.6286 47.1772 21.2308L33.5816 39.7768ZM44.5559 13.4655C44.5559 11.2143 43.7117 9.27299 42.0011 7.66209C40.2906 6.05119 38.2468 5.24574 35.892 5.24574C33.3817 5.24574 31.2934 6.03054 29.6051 7.64144C27.9167 9.23168 27.0726 11.235 27.0726 13.5894C27.0726 15.7785 27.9612 17.6373 29.7606 19.2069C31.56 20.7558 33.7149 21.5406 36.2474 21.5406C38.5578 21.5406 40.5349 20.7764 42.1566 19.2069C43.1341 18.2568 43.8228 17.1829 44.2004 15.9644C44.4448 15.1796 44.5559 14.3535 44.5559 13.4655Z" fill="#2891E4"/>
<path d="M20.8378 55.3067V58.9926H28.0344V72.2619H32.2234V58.9926H39.42V55.3067H20.8378Z" fill="#2891E4"/>
<path d="M0 55.3067V72.2619H4.40387L14.7154 60.7829V72.2619H18.9044V55.3067H14.7154L4.40387 66.5751V55.3067H0Z" fill="#2891E4"/>
<path d="M40.9237 59.2033H44.2535V67.5229L51.8797 59.2033H55.4243V72.2619H51.8797V63.837L44.2535 72.2619H40.9237V59.2033Z" fill="#2891E4"/>
<path d="M66.3802 55.2014L56.4984 72.2619H61.3319L71.3212 68.2601V64.539L71.2401 64.3933L64.4468 66.891L68.5285 59.5192L71.2401 64.3933L71.3212 64.3635V64.539L75.6176 72.2619H80.4511L70.7841 55.2014H66.3802Z" fill="#2891E4"/>
<path fill-rule="evenodd" clip-rule="evenodd" d="M83.2438 55.2014C83.2067 60.6027 83.323 63.7193 82.2771 68.4707H80.8808V75H85.1772V72.2619H95.811V75H100V68.4707H99.0333V55.2014H83.2438ZM94.7368 58.9926H87.0032C86.9119 62.7182 87.1194 64.86 86.4662 68.4707H94.7368V58.9926Z" fill="#2891E4"/>
<path d="M81.2262 45.6696H79.4002L77.0371 50.3033L73.1703 45.6696H70.9147L76.0704 51.7777C76.3397 52.352 75.2136 52.3743 72.7407 52.3043V53.8839H76.0704C77.4668 53.6733 79.1641 49.7808 81.2262 45.6696Z" fill="#2891E4"/>
<path d="M81.978 45.6696V47.0387H85.5226V53.8839H87.3486V47.0387H90.8932V45.6696H81.978Z" fill="#2891E4"/>
<path d="M66.7256 47.2493H70.3776V45.6696H61.2476V47.2493H64.7922V53.8839H66.7256V47.2493Z" fill="#2891E4"/>
<path d="M51.0435 45.6696H52.7621V51.5671L58.2401 45.6696H60.0661V53.8839H58.2401V47.8812L52.7621 53.8839H51.0435V45.6696Z" fill="#2891E4"/>
<path d="M40.7321 45.6696V47.2493H44.2766V53.6733H46.1026V47.2493H49.6472V45.6696H40.7321Z" fill="#2891E4"/>
<path d="M38.2616 48.0918L39.4431 47.2493C38.3616 46.1327 37.4649 45.852 35.2541 45.6696C32.7836 45.7749 30.9576 47.4599 30.9576 49.7768C30.9576 51.6724 32.336 53.42 35.2541 53.6733C37.4087 53.6961 38.3277 53.4087 39.4431 52.4096L38.2616 51.5671C37.3133 52.1834 36.5531 52.4341 35.1467 52.3043C33.3522 52.3152 32.7836 51.4618 32.7836 49.7768C32.891 48.1971 33.4486 47.6618 35.2541 47.2493C36.6517 47.1234 37.287 47.3543 38.2616 48.0918Z" fill="#2891E4"/>
<path d="M29.6687 45.6696H28.0575H27.8427V48.829H23.5462V49.1449L24.8352 50.7246H27.8427V53.8839H29.6687V45.6696Z" fill="#2891E4"/>
<path d="M23.5462 53.6733V49.1449V48.829V45.6696H22.0425V53.6733H23.5462Z" fill="#2891E4"/>
<path d="M11.731 45.6696H13.3422V51.5671L18.7127 45.6696H20.6461V53.6733H18.9275V47.7759L13.3422 53.8839H11.731V45.6696Z" fill="#2891E4"/>
</svg>
